<?xml version="1.0" encoding="utf-8"?>
<!-- Generator: Adobe Illustrator 25.1.0, SVG Export Plug-In . SVG Version: 6.00 Build 0)  -->
<svg version="1.1" xmlns="http://www.w3.org/2000/svg" xmlns:xlink="http://www.w3.org/1999/xlink" x="0px" y="0px"
	 viewBox="0 0 221 29" enable-background="new 0 0 221 29" xml:space="preserve">
<g id="Layer_2">
	<path fill="#8CD50B" d="M39.98,18.58c-2.38,0-4.39,1.2-5.06,2.86c0,0-0.01,0-0.01,0.01c-0.15,0.42-5.79,0.04-6.29-1.17l0,0
		c-0.01-0.02-0.02-0.05-0.03-0.07l0,0c-0.5-1.2,3.22-5.46,3.62-5.27c0,0,0.01,0,0.01,0c1.64,0.7,3.91,0.13,5.6-1.56
		c2.07-2.07,2.46-5.02,0.88-6.6l0,0c-1.58-1.58-4.54-1.19-6.6,0.88c-1.68,1.68-2.26,3.96-1.56,5.6c0,0,0,0.01,0,0.01
		c0.19,0.4-4.07,4.12-5.27,3.62l0,0c-0.02-0.01-0.05-0.02-0.07-0.03l0,0c-1.21-0.49-1.59-6.13-1.17-6.29c0,0,0,0,0.01-0.01
		c1.65-0.66,2.86-2.68,2.86-5.06c0-2.92-1.81-5.29-4.05-5.29h0c-2.23,0-4.05,2.37-4.05,5.29c0,2.38,1.2,4.39,2.86,5.06
		c0,0,0,0.01,0.01,0.01c0.42,0.15,0.04,5.79-1.17,6.29l0,0c-0.02,0.01-0.05,0.02-0.07,0.03l0,0c-1.2,0.5-5.46-3.22-5.27-3.62
		c0,0,0-0.01,0-0.01c0.7-1.64,0.13-3.91-1.56-5.6C11.56,5.59,8.6,5.2,7.02,6.78l0,0c-1.58,1.58-1.19,4.54,0.88,6.6
		c1.68,1.68,3.96,2.26,5.6,1.56c0,0,0.01,0,0.01,0c0.4-0.19,4.12,4.07,3.62,5.27l0,0c-0.01,0.02-0.02,0.05-0.03,0.07l0,0
		c-0.49,1.21-6.13,1.59-6.29,1.17c0,0,0,0-0.01-0.01c-0.66-1.65-2.68-2.86-5.06-2.86c-2.92,0-5.29,1.81-5.29,4.05v0
		c0,2.23,2.37,4.05,5.29,4.05c2.38,0,4.39-1.2,5.06-2.86c0,0,0.01,0,0.01-0.01c0.15-0.42,5.79-0.04,6.29,1.17l0,0
		c0.93,2.27,3.16,3.88,5.76,3.88c2.61,0,4.84-1.6,5.76-3.88l0,0c0.49-1.21,6.13-1.59,6.29-1.17c0,0,0,0,0.01,0.01
		c0.66,1.65,2.68,2.86,5.06,2.86c2.92,0,5.29-1.81,5.29-4.05v0C45.27,20.39,42.9,18.58,39.98,18.58z"/>
	<g>
		<path fill="#FFFFFF" d="M102.6,24.51c0,0.21-0.05,0.5-0.15,0.89c-0.11,0.49-0.18,0.78-0.2,0.89c-0.04,0.46-0.12,1.14-0.26,2.03
			c-0.06,0.23-0.22,0.35-0.48,0.35c-0.12,0-0.36-0.03-0.71-0.08c-1.53-0.23-3.89-0.35-7.1-0.35c-0.91,0-2.27,0.03-4.1,0.08
			c-1.83,0.05-3.19,0.08-4.1,0.08c-0.41,0-0.61-0.19-0.61-0.56c0-1.44,0.08-3.6,0.23-6.49c0.16-2.89,0.23-4.72,0.23-6.16
			c0-1.47-0.07-4.53-0.22-8.53c-0.03-1.03-0.09-2.57-0.21-4.61L84.9,1.77c-0.01-0.3,0.15-0.44,0.48-0.44c0.87,0,2.17,0.03,3.91,0.08
			c1.74,0.05,3.04,0.08,3.91,0.08c0.83,0,2.08-0.03,3.74-0.08c1.66-0.05,2.9-0.08,3.74-0.08c0.58,0,0.9,0.19,0.95,0.56
			c0.26,1.7,0.39,2.75,0.39,3.16c0,0.3-0.14,0.44-0.41,0.44c-1.06,0-2.66-0.06-4.8-0.18c-2.14-0.12-3.76-0.18-4.84-0.18
			c-1.02,0-1.66,0.14-1.93,0.42c-0.27,0.28-0.4,0.98-0.4,2.1v3.2c0,0.78,0.02,1.24,0.06,1.37c0.11,0.4,0.43,0.6,0.97,0.6
			c0.15,0,0.36-0.01,0.63-0.02c0.29,0,0.5,0,0.63,0c2.43,0,4.62-0.04,6.56-0.14c0.76-0.03,1.65-0.09,2.68-0.19
			c0.26-0.03,0.39,0.09,0.39,0.35c0,0.41-0.05,1.04-0.14,1.89c-0.09,0.85-0.14,1.49-0.14,1.91c0,0.23-0.19,0.35-0.56,0.35
			c-0.15,0-0.7-0.04-1.66-0.14c-0.7-0.08-2.26-0.12-4.7-0.12c-2.05,0-3.35,0.03-3.89,0.08c-0.5,0.04-0.78,0.31-0.86,0.81
			c0.01-0.09,0.02,0.08,0.02,1.16v2.86c0,1.34,0.2,2.17,0.6,2.51c0.31,0.27,1.09,0.41,2.33,0.41l2.05-0.02
			c0.87,0,3.31-0.15,7.32-0.46l0.28-0.02C102.48,24,102.6,24.16,102.6,24.51z"/>
		<path fill="#FFFFFF" d="M148.35,24.51c0,0.21-0.05,0.5-0.15,0.89c-0.11,0.49-0.18,0.78-0.21,0.89c-0.04,0.46-0.12,1.14-0.26,2.03
			c-0.06,0.23-0.22,0.35-0.48,0.35c-0.12,0-0.36-0.03-0.71-0.08c-1.53-0.23-3.89-0.35-7.1-0.35c-0.91,0-2.27,0.03-4.1,0.08
			c-1.83,0.05-3.19,0.08-4.1,0.08c-0.41,0-0.61-0.19-0.61-0.56c0-1.44,0.08-3.6,0.23-6.49c0.16-2.89,0.23-4.72,0.23-6.16
			c0-1.47-0.07-4.53-0.22-8.53c-0.03-1.03-0.09-2.57-0.21-4.61l-0.02-0.27c-0.01-0.3,0.15-0.44,0.48-0.44
			c0.87,0,2.17,0.03,3.91,0.08c1.74,0.05,3.04,0.08,3.91,0.08c0.83,0,2.08-0.03,3.74-0.08c1.66-0.05,2.9-0.08,3.74-0.08
			c0.58,0,0.9,0.19,0.95,0.56c0.26,1.7,0.39,2.75,0.39,3.16c0,0.3-0.14,0.44-0.41,0.44c-1.06,0-2.66-0.06-4.8-0.18
			c-2.14-0.12-3.76-0.18-4.84-0.18c-1.02,0-1.66,0.14-1.93,0.42c-0.27,0.28-0.4,0.98-0.4,2.1v2.87c0,0.78,0.02,1.57,0.06,1.7
			c0.11,0.4,0.43,0.6,0.97,0.6c0.15,0,0.36-0.01,0.63-0.02c0.29,0,0.5,0,0.63,0c2.43,0,4.62-0.04,6.56-0.14
			c0.76-0.03,1.65-0.09,2.68-0.19c0.26-0.03,0.39,0.09,0.39,0.35c0,0.41-0.05,1.04-0.14,1.89c-0.09,0.85-0.14,1.49-0.14,1.91
			c0,0.23-0.19,0.35-0.56,0.35c-0.15,0-0.7-0.04-1.66-0.14c-0.7-0.08-2.26-0.12-4.7-0.12c-2.05,0-3.35,0.03-3.89,0.08
			c-0.5,0.04-0.78,0.31-0.86,0.81c0.01-0.09,0.02,0.08,0.02,1.16v2.86c0,1.34,0.2,2.17,0.6,2.51c0.31,0.27,1.09,0.41,2.33,0.41
			l2.05-0.02c0.87,0,3.31-0.15,7.32-0.46l0.28-0.02C148.23,24,148.35,24.16,148.35,24.51z"/>
		<path fill="#FFFFFF" d="M171.49,27.75c0,0.61-0.18,0.91-0.54,0.91h-4.29c-0.36,0-1.3-1.38-2.81-4.14
			c-1.28-2.33-2.13-4.01-2.55-5.05c-0.42-1-0.66-1.58-0.73-1.7c-0.37-0.65-0.81-0.99-1.3-1.03c-0.15-0.01-0.57-0.02-1.25-0.02
			c-1.57,0-2.35,0.2-2.35,0.6c0,1.19,0.04,3,0.12,5.37c0.08,2.37,0.12,4.14,0.12,5.32c0,0.43-0.16,0.64-0.47,0.64
			c-0.24,0-0.59-0.02-1.06-0.06c-0.47-0.04-0.83-0.06-1.06-0.06c-0.22,0-0.56,0.02-1,0.06c-0.44,0.04-0.77,0.06-1,0.06
			c-0.31,0-0.47-0.15-0.47-0.45c0-1.42,0.07-3.56,0.2-6.42c0.13-2.86,0.2-5,0.2-6.42c0-1.83-0.08-4.09-0.2-6.77
			c-0.13-3.01-0.2-5.27-0.2-6.77c0-0.28,0.16-0.43,0.47-0.43c0.22,0,0.57,0.02,1.02,0.06c0.46,0.04,0.81,0.06,1.04,0.06
			c0.22,0,0.56-0.02,1.01-0.06c0.45-0.04,0.78-0.06,1.01-0.06c0.29,0,0.43,0.12,0.43,0.35c0,1.1-0.03,2.76-0.1,4.97
			c-0.07,2.21-0.1,3.7-0.1,4.81c0,0.51,0.03,0.82,0.09,0.95c0.1,0.23,0.35,0.35,0.76,0.35c2.41,0,4.17-0.47,5.29-1.4
			c0.96-0.83,1.86-2.17,2.72-4.38c0.62-1.74,1.24-3.47,1.86-5.21c0.09-0.22,0.28-0.37,0.58-0.45c0.2-0.05,0.86-0.08,1.98-0.08
			c1.37,0,2.05,0.2,2.05,0.6c0,0.23-0.29,1.28-0.86,3.15c-0.67,2.18-1.54,4.09-2.61,5.75c-0.71,1.13-1.65,2.26-2.81,3.4
			c-0.3,0.27-0.45,0.52-0.45,0.74c0,0.23,0.5,1.39,1.51,3.48c0.87,1.8,1.66,3.24,2.37,4.33c0.78,1,1.88,2.53,3.28,4.6
			C171.46,27.49,171.49,27.62,171.49,27.75z"/>
		<path fill="#FFFFFF" d="M194.24,27.75c0,0.61-0.18,0.91-0.54,0.91h-4.29c-0.36,0-1.3-1.38-2.81-4.14
			c-1.28-2.33-2.13-4.01-2.55-5.05c-0.42-1-0.66-1.58-0.73-1.7c-0.37-0.65-0.81-0.99-1.3-1.03c-0.15-0.01-0.57-0.02-1.25-0.02
			c-1.57,0-2.35,0.2-2.35,0.6c0,1.19,0.04,3,0.12,5.37c0.08,2.37,0.12,4.14,0.12,5.32c0,0.43-0.16,0.64-0.47,0.64
			c-0.24,0-0.59-0.02-1.06-0.06c-0.47-0.04-0.83-0.06-1.06-0.06c-0.22,0-0.56,0.02-1,0.06c-0.44,0.04-0.77,0.06-1,0.06
			c-0.31,0-0.47-0.15-0.47-0.45c0-1.42,0.07-3.56,0.2-6.42c0.13-2.86,0.2-5,0.2-6.42c0-1.83-0.08-4.09-0.2-6.77
			c-0.13-3.01-0.2-5.27-0.2-6.77c0-0.28,0.16-0.43,0.47-0.43c0.22,0,0.57,0.02,1.02,0.06c0.46,0.04,0.81,0.06,1.04,0.06
			c0.22,0,0.56-0.02,1.01-0.06c0.45-0.04,0.78-0.06,1.01-0.06c0.29,0,0.43,0.12,0.43,0.35c0,1.1-0.03,2.76-0.1,4.97
			c-0.07,2.21-0.1,3.7-0.1,4.81c0,0.51,0.03,0.82,0.09,0.95c0.1,0.23,0.35,0.35,0.76,0.35c2.41,0,4.17-0.47,5.29-1.4
			c0.96-0.83,1.86-2.17,2.72-4.38c0.62-1.74,1.24-3.47,1.86-5.21c0.09-0.22,0.28-0.37,0.58-0.45c0.2-0.05,0.86-0.08,1.98-0.08
			c1.37,0,2.05,0.2,2.05,0.6c0,0.23-0.29,1.28-0.86,3.15c-0.67,2.18-1.54,4.09-2.61,5.75c-0.71,1.13-1.65,2.26-2.81,3.4
			c-0.3,0.27-0.45,0.52-0.45,0.74c0,0.23,0.5,1.39,1.51,3.48c0.87,1.8,1.66,3.24,2.37,4.33c0.78,1,1.88,2.53,3.28,4.6
			C194.21,27.49,194.24,27.62,194.24,27.75z"/>
		<path fill="#FFFFFF" d="M127.86,27.1c-0.24-3.11-0.33-5.58-0.33-7.4c0-0.44-0.03-1.11,0-2c0.02-0.47-0.01-0.87,0-1.21v0
			c0,0,0-0.14,0-0.36c0-0.16,0-0.3,0-0.43c0-0.02,0-0.03,0-0.04c0-0.85,0-1.89,0-2.29c0-0.62-1.08-0.74-1.08-0.74h-2.64
			c-2.47,0-4.05-0.04-4.76-0.12c-0.97-0.09-1.53-0.14-1.68-0.14c-0.38,0-0.57,0.12-0.57,0.35c0,0.43-0.05,1.08-0.14,1.94
			c-0.09,0.86-0.14,1.5-0.14,1.92c0,0.26,0.13,0.38,0.4,0.35c1.05-0.1,1.95-0.17,2.72-0.2c0.85-0.04,1.75-0.07,2.69-0.09
			c0.24,0.01,0.73,0.07,0.82,0.48c0.04,0.56,0.08,1.23,0.08,2.06c0.01,2.07,0.01,3.25,0.04,3.59c-1.93,1.26-3.68,1.71-5.99,1.71
			c-2.34,0-4.29-1.01-5.84-3.02c-1.42-1.86-2.13-4-2.13-6.41c0-2.48,0.69-4.63,2.08-6.45c1.52-2,3.48-3,5.86-3
			c1.25,0,2.44,0.39,3.59,1.16c0.73,0.49,1.5,1.21,2.3,2.14c0.67,0.77,1.05,1.16,1.15,1.16c0.14,0,0.66-0.5,1.56-1.49
			c0.9-0.99,1.35-1.58,1.35-1.75c0-0.13-0.08-0.31-0.25-0.55c-1.07-1.59-2.5-2.85-4.3-3.76c-1.79-0.92-3.66-1.37-5.6-1.37
			c-3.78,0-6.84,1.39-9.2,4.17c-2.23,2.63-3.34,5.88-3.34,9.75c0,3.78,1.13,6.99,3.4,9.62c2.39,2.78,5.44,4.17,9.14,4.17
			c3.17,0,5.92-0.79,8.24-2.37c0.2,0.15,0.53,0.49,1.06,0.77c0.34,0.18,0.85,0.54,1.04,0.54c0.34,0,0.5-0.14,0.47-0.42V27.1z"/>
		<g>
			<path fill="#FFFFFF" d="M80.9,28.19c0,0.34-0.17,0.5-0.5,0.5c-0.24,0-0.61-0.02-1.1-0.06c-0.49-0.04-0.86-0.06-1.1-0.06
				c-0.24,0-0.61,0.02-1.11,0.06c-0.5,0.04-0.87,0.06-1.11,0.06c-0.34,0-0.5-0.22-0.5-0.66c0-1.7,0.05-4.26,0.16-7.67
				c0.11-3.41,0.16-5.96,0.16-7.67c0-0.25-0.05-0.38-0.16-0.38c-0.12,0-0.21,0.07-0.28,0.22c-0.68,1.46-2.3,5.37-4.85,11.71
				c-0.42,1.22-1.01,2.43-1.79,4.26c-0.09,0.17-0.58,0.26-1.45,0.26c-1.26,0-1.96-0.11-2.09-0.34c-0.46-1.09-1.11-2.61-1.95-4.57
				c-1.11-2.66-2.82-6.3-5.13-11.56c-0.04-0.09-0.13-0.19-0.26-0.28c-0.11,0.08-0.16,0.23-0.16,0.44c0,1.73,0.03,4.33,0.09,7.79
				c0.06,3.46,0.09,6.06,0.09,7.79c0,0.44-0.17,0.66-0.5,0.66c-0.23,0-0.58-0.02-1.05-0.06c-0.47-0.04-0.82-0.06-1.05-0.06
				c-0.24,0-0.6,0.02-1.08,0.06c-0.48,0.04-0.84,0.06-1.08,0.06c-0.34,0-0.5-0.13-0.5-0.38c0-1.49,0.07-3.72,0.21-6.69
				c0.14-2.97,0.21-5.2,0.21-6.69c0-1.54-0.07-3.86-0.21-6.95c-0.14-3.09-0.21-5.41-0.21-6.95c0-0.25,0.15-0.4,0.46-0.44
				c1.82-0.24,3.2-0.36,4.13-0.36c0.13,0,0.32,0.28,0.56,0.83c3.25,7.14,6.04,13.2,8.37,18.81c0.55,1.32,0.88,1.97,0.99,1.97
				c0.13,0,0.42-0.54,0.87-1.61c1.82-4.35,4.35-10.49,7.59-19.05c0.2-0.52,0.42-0.78,0.66-0.78c0.46,0,1.14,0.03,2.06,0.08
				c0.92,0.05,1.61,0.08,2.06,0.08c0.34,0,0.5,0.16,0.5,0.48c0,1.54-0.05,3.86-0.15,6.95c-0.1,3.09-0.15,5.41-0.15,6.95
				c0,1.48,0.06,3.69,0.17,6.64C80.84,24.52,80.9,26.73,80.9,28.19z"/>
		</g>
		<g>
			<defs>
				<path id="SVGID_1_" d="M220,15c0,3.74-1.2,6.96-3.59,9.65c-2.49,2.79-5.59,4.19-9.29,4.19c-3.71,0-6.81-1.39-9.29-4.17
					c-2.39-2.68-3.59-5.9-3.59-9.67c0-3.73,1.21-6.94,3.63-9.65c2.49-2.81,5.58-4.21,9.25-4.21c3.69,0,6.78,1.4,9.27,4.21
					C218.8,8.04,220,11.26,220,15z M215.22,14.94c0-2.4-0.75-4.49-2.24-6.26c-1.57-1.89-3.53-2.83-5.89-2.83
					c-2.34,0-4.28,0.95-5.84,2.86c-1.47,1.79-2.2,3.88-2.2,6.28c0,2.39,0.73,4.47,2.2,6.26c1.55,1.91,3.5,2.86,5.84,2.86
					c2.37,0,4.35-0.95,5.91-2.86C214.48,19.47,215.22,17.37,215.22,14.94z"/>
			</defs>
			<use xlink:href="#SVGID_1_"  overflow="visible" fill="#FFFFFF"/>
			<clipPath id="SVGID_2_">
				<use xlink:href="#SVGID_1_"  overflow="visible"/>
			</clipPath>
		</g>
	</g>
</g>
<g id="Layer_1">
</g>
</svg>
