<?xml version="1.0" encoding="utf-8"?>
<!-- Generator: Adobe Illustrator 27.8.0, SVG Export Plug-In . SVG Version: 6.00 Build 0)  -->
<svg version="1.1" xmlns="http://www.w3.org/2000/svg" xmlns:xlink="http://www.w3.org/1999/xlink" x="0px" y="0px"
	 viewBox="0 0 79 78" style="enable-background:new 0 0 79 78;" xml:space="preserve">
<style type="text/css">
	.st0{fill:#E6E6E6;}
	.st1{fill:none;stroke:#FFFFFF;stroke-miterlimit:10;}
	.st2{display:none;}
</style>
<g id="Layer_1">
	<path class="st0" d="M75.7,26.5C75.7,26.5,75.7,26.6,75.7,26.5L54.8,54.9c-1.2,1.5-2.4,2.5-4.5,2.4H29.6c-2.7,0-3.9-0.8-5-3.6
		l-6.2-20.1c-0.8-1.7-0.6-3.8,0.4-5.3L39.7,1c-0.1,0-0.1,0-0.2,0C18.2,1,1,18.2,1,39.5S18.2,78,39.5,78S78,60.7,78,39.5
		C78,34.9,77.2,30.5,75.7,26.5z"/>
	<path class="st1" d="M18.3,33.6l6.2,20.1c1.2,2.9,2.3,3.6,5,3.6h20.6c2.1,0,3.4-0.9,4.5-2.4l21-28.3c0,0,0,0,0-0.1
		C70.4,11.7,56.3,1.1,39.7,1L18.8,28.2C17.7,29.8,17.6,31.8,18.3,33.6z M26.9,26.7h25.5V35h-8.6v14.1h-8.3V35h-8.7V26.7z"/>
	<polygon class="st0" points="35.5,49.1 43.8,49.1 43.8,35 52.4,35 52.4,26.7 26.9,26.7 26.9,35 35.5,35 	"/>
</g>
<g id="witruimte" class="st2">
</g>
</svg>
